HIERARCHY
ROOT ui
{
	 OFFSET 0 0 0
	 CHANNELS 3 XPosition YPosition Z Position
	 EndSite
	 {
	 OFFSET 0 -1 0
	 }
}
ROOT li
{
	 OFFSET 0 0 0
	 CHANNELS 3 XPosition YPosition Z Position
	 EndSite
	 {
	 OFFSET 0 -1 0
	 }
}
ROOT ul
{
	 OFFSET 0 0 0
	 CHANNELS 3 XPosition YPosition Z Position
	 EndSite
	 {
	 OFFSET 0 -1 0
	 }
}
ROOT ll
{
	 OFFSET 0 0 0
	 CHANNELS 3 XPosition YPosition Z Position
	 EndSite
	 {
	 OFFSET 0 -1 0
	 }
}
ROOT tt
{
	 OFFSET 0 0 0
	 CHANNELS 3 XPosition YPosition Z Position
	 EndSite
	 {
	 OFFSET 0 -1 0
	 }
}
ROOT tb
{
	 OFFSET 0 0 0
	 CHANNELS 3 XPosition YPosition Z Position
	 EndSite
	 {
	 OFFSET 0 -1 0
	 }
}
ROOT td
{
	 OFFSET 0 0 0
	 CHANNELS 3 XPosition YPosition Z Position
	 EndSite
	 {
	 OFFSET 0 -1 0
	 }
}
ROOT v
{
	 OFFSET 0 0 0
	 CHANNELS 3 XPosition YPosition Z Position
	 EndSite
	 {
	 OFFSET 0 -1 0
	 }
}
ROOT bn
{
	 OFFSET 0 0 0
	 CHANNELS 3 XPosition YPosition Z Position
	 EndSite
	 {
	 OFFSET 0 -1 0
	 }
}
MOTION
Frames: 27
Frame Time: 0.002
5.460259914398194E-4	7.848380208015442E-4	0		0.5249135131835938	-2.4273154296875	0		-0.9800176391601563	0.11267738342285157	0		-0.755509033203125	-2.531234375	0		1.56368408203125	-0.7234246826171875	0		3.294603271484375	-0.24329054260253907	0		4.51383349609375	-0.085333251953125	0		5.5820576171875	0.11863384246826172	0		-0.24213119506835937	5.87779443359375	0		
0.004079495906829834	0.004321889877319336	0		0.4983912658691406	-2.42267138671875	0		-0.980497314453125	0.11225464630126954	0		-0.67705859375	-2.532978271484375	0		1.5661956787109375	-0.7209221801757812	0		3.282051025390625	-0.259770751953125	0		4.5273525390625	-0.0859425811767578	0		5.5975458984375	0.10998528289794922	0		-0.24246858215332032	5.877353515625	0		
0.003620305061340332	0.0038859479427337646	0		0.5059210510253906	-2.41215087890625	0		-0.9849700927734375	0.10785716247558594	0		-0.68955126953125	-2.5273505859375	0		1.5627080078125	-0.7243815307617187	0		3.303641845703125	-0.24636961364746093	0		4.51289501953125	-0.08642048645019532	0		5.59615771484375	0.12642617797851563	0		-0.2427943878173828	5.8769228515625	0		
0.003189897060394287	0.0034649360179901125	0		0.5213683471679688	-2.430646728515625	0		-0.9853983764648437	0.1074564208984375	0		-0.6940496826171875	-2.5317412109375	0		1.5622626953125	-0.7248345336914063	0		3.270210693359375	-0.24572509765625	0		4.52646533203125	-0.08698636627197266	0		5.591697265625	0.11790671539306641	0		-0.24410032653808594	5.87751123046875	0		
-0.001223099946975708	-9.219130277633667E-4	0		0.4929358520507813	-2.428945556640625	0		-0.9857933349609375	0.10707119750976563	0		-0.7684633178710938	-2.524831787109375	0		1.5618526611328125	-0.7252658081054687	0		3.269809326171875	-0.246187255859375	0		4.51206982421875	-0.08741085815429687	0		5.58123388671875	0.10044326782226562	0		-0.24339500427246094	5.8761083984375	0		
0.0024341380596160887	0.002679004907608032	0		0.49655963134765624	-2.424352294921875	0		-0.966158935546875	0.10462226104736329	0		-0.6768865356445313	-2.531576904296875	0		1.5314949951171875	-0.7225506591796875	0		3.3174052734375	-0.2568158874511719	0		4.515740234375	-0.08087664031982422	0		5.59490478515625	0.10691716003417968	0		-0.2276266632080078	5.8846640625	0		
0.006129140853881836	0.005302003860473633	0		0.4982197265625	-2.422727294921875	0		-0.9774380493164062	0.11331875610351562	0		-0.6772359008789063	-2.531928955078125	0		1.5702008056640624	-0.7150900268554687	0		3.284175048828125	-0.23508407592773437	0		4.5104609375	-0.072271728515625	0		5.57962548828125	0.11554666137695313	0		-0.2288610076904297	5.886310546875	0		
0.0018447070121765136	0.001981209993362427	0		0.512927490234375	-2.422130859375	0		-0.9867377319335937	0.1060281982421875	0		-0.693529052734375	-2.53119384765625	0		1.5608765869140624	-0.72640576171875	0		3.2648310546875	-0.25237583923339846	0		4.50516064453125	-0.07963104248046875	0		5.58532177734375	0.10712975311279296	0		-0.24411981201171876	5.875037109375	0		
0.001619891047477722	0.0016680539846420288	0		0.4757265319824219	-2.412296142578125	0		-0.9869617919921875	0.1057221450805664	0		-0.7047391357421875	-2.52345703125	0		1.560646484375	-0.7267301025390625	0		3.268624755859375	-0.2477288818359375	0		4.5108994140625	-0.08899964904785156	0		5.57509765625	0.10681748199462891	0		-0.24529832458496093	5.87572998046875	0		
0.0014441649913787841	0.0013787109851837159	0		0.5194573364257813	-2.43276806640625	0		-0.9871370239257813	0.10543732452392578	0		-0.6839922485351563	-2.539829345703125	0		1.51847607421875	-0.724854248046875	0		3.297423095703125	-0.2541521453857422	0		4.51072412109375	-0.08930869293212891	0		5.57895556640625	0.11448616790771485	0		-0.2444512939453125	5.8744375	0		
0.001318742036819458	0.0011125320196151733	0		0.4673642272949219	-2.42382177734375	0		-0.9782335815429688	0.11213618469238282	0		-0.6821148071289063	-2.538102294921875	0		1.5663692626953125	-0.7203207397460938	0		3.27337939453125	-0.2343267822265625	0		4.51462744140625	-0.0826003189086914	0		5.588830078125	0.11416732788085937	0		-0.24456451416015626	5.874171875	0		
0.0012444640398025513	8.685179948806763E-4	0		0.51631494140625	-2.418266845703125	0		-0.978307861328125	0.11189186859130859	0		-0.6901471557617187	-2.528313720703125	0		1.5243037109375	-0.7183917846679687	0		3.301243408203125	-0.24968464660644532	0		4.5245244140625	-0.08988401794433594	0		5.588755859375	0.11392501831054687	0		-0.245636474609375	5.874931640625	0		
0.0012218379974365235	6.453930139541626E-4	0		0.4952658996582031	-2.426402587890625	0		-0.9873594360351563	0.10470320129394531	0		-0.6941796264648438	-2.532522216796875	0		1.5602457275390624	-0.7277586669921875	0		3.29525439453125	-0.24187467956542968	0		4.5095673828125	-0.0740345458984375	0		5.59873291015625	0.11367530059814453	0		-0.24567428588867188	5.8747080078125	0		
0.0012510499954223632	4.416579902172089E-4	0		0.5103106689453125	-2.425665283203125	0		-0.9873307495117187	0.1044947509765625	0		-0.696146484375	-2.534720947265625	0		1.5602784423828124	-0.7279549560546875	0		3.275264404296875	-0.24698068237304688	0		4.5105302734375	-0.0902216796875	0		5.58472900390625	0.10555574035644531	0		-0.24567311096191408	5.8745029296875	0		
0.001331974983215332	2.5565099716186524E-4	0		0.49339205932617186	-2.4297783203125	0		-0.9872505493164062	0.10430194091796875	0		-0.696048095703125	-2.534911865234375	0		1.5603643798828124	-0.7281302490234375	0		3.25834716796875	-0.2470745849609375	0		4.5146396484375	-0.08339445495605469	0		5.578841796875	0.11343264770507812	0		-0.24463671875	5.8733115234375	0		
0.011427178382873535	-0.008955016136169433	0		0.49756613159179686	-2.424960205078125	0		-0.9721072998046875	0.10706195068359375	0		-0.7548807373046875	-2.531846923828125	0		1.5275521240234375	-0.716151611328125	0		3.3054931640625	-0.24440740966796876	0		4.5197998046875	-0.07654640197753906	0		5.58896435546875	0.11127162170410156	0		-0.22852040100097656	5.88207373046875	0		
0.008669856071472169	0.005902146816253662	0		0.5257654418945312	-2.427223876953125	0		-0.9738944091796875	0.11490445709228515	0		-0.6776806640625	-2.53432373046875	0		1.5697369384765625	-0.717461181640625	0		3.294734375	-0.23048200988769532	0		4.51495166015625	-0.08363429260253906	0		5.59915283203125	0.11313630676269532	0		-0.24443910217285156	5.8729814453125	0		
0.0018729530572891234	-2.1023400127887727E-4	0		0.5130357055664062	-2.424305419921875	0		-0.986712890625	0.10380414581298827	0		-0.7314087524414062	-2.531254150390625	0		1.5639410400390625	-0.7255579833984375	0		3.25889599609375	-0.24743533325195313	0		4.5051865234375	-0.08168051910400391	0		5.57937890625	0.11314680480957032	0		-0.24528125	5.873841796875	0		
0.002141300916671753	-3.378219902515411E-4	0		0.5202975463867188	-2.4344541015625	0		-0.986446044921875	0.10366266632080078	0		-0.695121337890625	-2.53553759765625	0		1.5612073974609375	-0.7286514892578125	0		3.276167724609375	-0.2475859375	0		4.5054541015625	-0.08174764251708984	0		5.58561328125	0.10507337951660156	0		-0.24509544372558595	5.87371044921875	0		
0.002444322109222412	-4.529930055141449E-4	0		0.4666665344238281	-2.42734375	0		-0.9861445922851563	0.1035323486328125	0		-0.7707587280273438	-2.530357177734375	0		1.519530029296875	-0.726573486328125	0		3.2814423828125	-0.2556710510253906	0		4.515748046875	-0.08383718872070313	0		5.58591064453125	0.10404373168945312	0		-0.24388642883300782	5.87258740234375	0		
0.0027751619815826415	-5.566930174827576E-4	0		0.5250245361328125	-2.430672607421875	0		-0.9767874145507812	0.11037631225585938	0		-0.6804234008789063	-2.539834716796875	0		1.570908447265625	-0.717857177734375	0		3.291857421875	-0.23576145935058593	0		4.51607763671875	-0.08387040710449219	0		5.58623974609375	0.10403127288818359	0		-0.24365156555175782	5.87247998046875	0		
0.007138247013092041	0.0023341889381408693	0		0.49943740844726564	-2.42565283203125	0		-0.9764381713867187	0.11026644897460937	0		-0.6899967651367187	-2.531899658203125	0		1.568255859375	-0.7219114379882813	0		3.264184814453125	-0.2426863250732422	0		4.51549169921875	-0.06788584136962891	0		5.59062548828125	0.11301763916015625	0		-0.24340092468261718	5.87238232421875	0		
0.0034892189502716063	-7.332389950752259E-4	0		0.514846923828125	-2.424787353515625	0		-0.98510498046875	0.10320162963867187	0		-0.6915972290039063	-2.5339873046875	0		1.5656156005859374	-0.7259553833007812	0		3.2975517578125	-0.2428436737060547	0		4.51678955078125	-0.083897216796875	0		5.600986328125	0.11299277496337891	0		-0.2431413879394531	5.872294921875	0		
0.00385430908203125	-8.080639839172363E-4	0		0.48726727294921873	-2.4217421875	0		-0.9847417602539063	0.10310919952392578	0		-0.6931948852539063	-2.53606640625	0		1.5629818115234375	-0.728990478515625	0		3.255929443359375	-0.24069345092773436	0		4.51218896484375	-0.0748754653930664	0		5.59134912109375	0.1130572738647461	0		-0.2589164428710938	5.86327880859375	0		
1.9510599970817567E-4	-0.0048594560623168945	0		0.522615234375	-2.434938720703125	0		-0.9843870849609375	0.10302445983886718	0		-0.6828250122070313	-2.544185546875	0		1.521359375	-0.7268643798828125	0		3.272290283203125	-0.24076605224609374	0		4.5175087890625	-0.08388587951660156	0		5.58766845703125	0.10410505676269531	0		-0.24262857055664064	5.87214404296875	0		
0.00855904483795166	0.0020487999916076662	0		0.47304156494140626	-2.422793701171875	0		-0.9640604248046875	0.10086851501464844	0		-0.6764207153320313	-2.53828125	0		1.5836962890625	-0.7301415405273437	0		3.279638671875	-0.23879682922363282	0		4.50887158203125	-0.07683566284179688	0		5.5920302734375	0.11112635803222656	0		-0.24040231323242187	5.87007177734375	0		
0.011874465942382813	0.004983572959899902	0		0.5313739624023438	-2.426066162109375	0		-0.97070751953125	0.113825927734375	0		-0.6840350952148437	-2.52831494140625	0		1.573059326171875	-0.7181256103515625	0		3.2939580078125	-0.23584996032714844	0		4.523173828125	-0.0768714370727539	0		5.59233984375	0.11316691589355468	0		-0.24218960571289064	5.872021484375	0		
